<mxfile host="Electron" modified="2024-02-07T13:14:25.410Z" agent="Mozilla/5.0 (Windows NT 10.0; Win64; x64) AppleWebKit/537.36 (KHTML, like Gecko) draw.io/22.1.18 Chrome/120.0.6099.199 Electron/28.1.2 Safari/537.36" etag="KN78fiHYVybuTCHRKpCU" version="22.1.18" type="device">
  <diagram name="Page-1" id="16XjI0kiUn-NuyR_T_i7">
    <mxGraphModel dx="1011" dy="1060" grid="1" gridSize="10" guides="1" tooltips="1" connect="1" arrows="1" fold="1" page="1" pageScale="1" pageWidth="850" pageHeight="1100" math="0" shadow="0">
      <root>
        <mxCell id="0" />
        <mxCell id="1" parent="0" />
        <mxCell id="dFhbQ2jlh1eT3Z2HHcco-13" style="rounded=0;orthogonalLoop=1;jettySize=auto;html=1;exitX=0.5;exitY=1;exitDx=0;exitDy=0;entryX=0.5;entryY=0;entryDx=0;entryDy=0;edgeStyle=orthogonalEdgeStyle;curved=1;" parent="1" source="dFhbQ2jlh1eT3Z2HHcco-1" target="dFhbQ2jlh1eT3Z2HHcco-2" edge="1">
          <mxGeometry relative="1" as="geometry" />
        </mxCell>
        <mxCell id="dFhbQ2jlh1eT3Z2HHcco-14" style="edgeStyle=orthogonalEdgeStyle;rounded=0;orthogonalLoop=1;jettySize=auto;html=1;exitX=0.5;exitY=1;exitDx=0;exitDy=0;entryX=0.5;entryY=0;entryDx=0;entryDy=0;curved=1;" parent="1" source="dFhbQ2jlh1eT3Z2HHcco-1" target="dFhbQ2jlh1eT3Z2HHcco-7" edge="1">
          <mxGeometry relative="1" as="geometry" />
        </mxCell>
        <mxCell id="dFhbQ2jlh1eT3Z2HHcco-1" value="&lt;font size=&quot;3&quot;&gt;&lt;b&gt;A&lt;/b&gt;&lt;/font&gt;" style="ellipse;whiteSpace=wrap;html=1;" parent="1" vertex="1">
          <mxGeometry x="375" y="150" width="50" height="50" as="geometry" />
        </mxCell>
        <mxCell id="dFhbQ2jlh1eT3Z2HHcco-15" style="edgeStyle=orthogonalEdgeStyle;rounded=0;orthogonalLoop=1;jettySize=auto;html=1;exitX=0.5;exitY=1;exitDx=0;exitDy=0;entryX=0.5;entryY=0;entryDx=0;entryDy=0;curved=1;" parent="1" source="dFhbQ2jlh1eT3Z2HHcco-2" target="dFhbQ2jlh1eT3Z2HHcco-4" edge="1">
          <mxGeometry relative="1" as="geometry" />
        </mxCell>
        <mxCell id="dFhbQ2jlh1eT3Z2HHcco-2" value="&lt;font size=&quot;3&quot;&gt;&lt;b&gt;P&lt;/b&gt;&lt;/font&gt;" style="ellipse;whiteSpace=wrap;html=1;fillColor=#FFCCCC;" parent="1" vertex="1">
          <mxGeometry x="280" y="240" width="50" height="50" as="geometry" />
        </mxCell>
        <mxCell id="dFhbQ2jlh1eT3Z2HHcco-21" style="edgeStyle=orthogonalEdgeStyle;rounded=0;orthogonalLoop=1;jettySize=auto;html=1;exitX=0.5;exitY=1;exitDx=0;exitDy=0;curved=1;" parent="1" source="dFhbQ2jlh1eT3Z2HHcco-3" target="dFhbQ2jlh1eT3Z2HHcco-10" edge="1">
          <mxGeometry relative="1" as="geometry" />
        </mxCell>
        <mxCell id="dFhbQ2jlh1eT3Z2HHcco-3" value="&lt;font size=&quot;3&quot;&gt;&lt;b&gt;P&lt;/b&gt;&lt;/font&gt;" style="ellipse;whiteSpace=wrap;html=1;" parent="1" vertex="1">
          <mxGeometry x="400" y="340" width="50" height="50" as="geometry" />
        </mxCell>
        <mxCell id="dFhbQ2jlh1eT3Z2HHcco-16" style="edgeStyle=orthogonalEdgeStyle;rounded=0;orthogonalLoop=1;jettySize=auto;html=1;exitX=0.5;exitY=1;exitDx=0;exitDy=0;entryX=0.5;entryY=0;entryDx=0;entryDy=0;curved=1;" parent="1" source="dFhbQ2jlh1eT3Z2HHcco-4" target="dFhbQ2jlh1eT3Z2HHcco-5" edge="1">
          <mxGeometry relative="1" as="geometry" />
        </mxCell>
        <mxCell id="dFhbQ2jlh1eT3Z2HHcco-4" value="&lt;font size=&quot;3&quot;&gt;&lt;b&gt;I&lt;/b&gt;&lt;/font&gt;" style="ellipse;whiteSpace=wrap;html=1;fillColor=#FFCCCC;" parent="1" vertex="1">
          <mxGeometry x="230" y="330" width="50" height="50" as="geometry" />
        </mxCell>
        <mxCell id="dFhbQ2jlh1eT3Z2HHcco-5" value="&lt;font size=&quot;3&quot;&gt;&lt;b&gt;.&lt;/b&gt;&lt;/font&gt;" style="ellipse;whiteSpace=wrap;html=1;fillColor=#FFCCCC;" parent="1" vertex="1">
          <mxGeometry x="190" y="430" width="50" height="50" as="geometry" />
        </mxCell>
        <mxCell id="dFhbQ2jlh1eT3Z2HHcco-18" style="edgeStyle=orthogonalEdgeStyle;rounded=0;orthogonalLoop=1;jettySize=auto;html=1;exitX=0.5;exitY=1;exitDx=0;exitDy=0;entryX=0.5;entryY=0;entryDx=0;entryDy=0;curved=1;" parent="1" source="dFhbQ2jlh1eT3Z2HHcco-7" target="dFhbQ2jlh1eT3Z2HHcco-3" edge="1">
          <mxGeometry relative="1" as="geometry" />
        </mxCell>
        <mxCell id="dFhbQ2jlh1eT3Z2HHcco-7" value="&lt;font size=&quot;3&quot;&gt;&lt;b&gt;P&lt;/b&gt;&lt;/font&gt;" style="ellipse;whiteSpace=wrap;html=1;" parent="1" vertex="1">
          <mxGeometry x="375" y="245" width="50" height="50" as="geometry" />
        </mxCell>
        <mxCell id="dFhbQ2jlh1eT3Z2HHcco-8" value="&lt;font size=&quot;3&quot;&gt;&lt;b&gt;E&lt;/b&gt;&lt;/font&gt;" style="ellipse;whiteSpace=wrap;html=1;" parent="1" vertex="1">
          <mxGeometry x="460" y="550" width="50" height="50" as="geometry" />
        </mxCell>
        <mxCell id="dFhbQ2jlh1eT3Z2HHcco-9" value="&lt;font size=&quot;3&quot;&gt;&lt;b&gt;.&lt;/b&gt;&lt;/font&gt;" style="ellipse;whiteSpace=wrap;html=1;" parent="1" vertex="1">
          <mxGeometry x="490" y="640" width="50" height="50" as="geometry" />
        </mxCell>
        <mxCell id="dFhbQ2jlh1eT3Z2HHcco-10" value="&lt;font size=&quot;3&quot;&gt;&lt;b&gt;L&lt;/b&gt;&lt;/font&gt;" style="ellipse;whiteSpace=wrap;html=1;" parent="1" vertex="1">
          <mxGeometry x="430" y="465" width="50" height="50" as="geometry" />
        </mxCell>
        <mxCell id="NCGhJBN-21cvcJwLRavN-1" style="edgeStyle=orthogonalEdgeStyle;rounded=0;orthogonalLoop=1;jettySize=auto;html=1;exitX=0.5;exitY=1;exitDx=0;exitDy=0;entryX=0.38;entryY=0.02;entryDx=0;entryDy=0;entryPerimeter=0;curved=1;" edge="1" parent="1" source="dFhbQ2jlh1eT3Z2HHcco-10" target="dFhbQ2jlh1eT3Z2HHcco-8">
          <mxGeometry relative="1" as="geometry" />
        </mxCell>
        <mxCell id="NCGhJBN-21cvcJwLRavN-2" style="edgeStyle=orthogonalEdgeStyle;rounded=0;orthogonalLoop=1;jettySize=auto;html=1;exitX=0.5;exitY=1;exitDx=0;exitDy=0;entryX=0.42;entryY=0.14;entryDx=0;entryDy=0;entryPerimeter=0;curved=1;" edge="1" parent="1" source="dFhbQ2jlh1eT3Z2HHcco-8" target="dFhbQ2jlh1eT3Z2HHcco-9">
          <mxGeometry relative="1" as="geometry" />
        </mxCell>
        <mxCell id="NCGhJBN-21cvcJwLRavN-3" value="Delete 1st" style="text;html=1;strokeColor=none;fillColor=none;align=center;verticalAlign=middle;whiteSpace=wrap;rounded=0;" vertex="1" parent="1">
          <mxGeometry x="80" y="450" width="60" height="30" as="geometry" />
        </mxCell>
        <mxCell id="NCGhJBN-21cvcJwLRavN-4" value="Delete 2nd" style="text;html=1;strokeColor=none;fillColor=none;align=center;verticalAlign=middle;whiteSpace=wrap;rounded=0;" vertex="1" parent="1">
          <mxGeometry x="140" y="330" width="60" height="30" as="geometry" />
        </mxCell>
        <mxCell id="NCGhJBN-21cvcJwLRavN-5" value="Delete 3nd" style="text;html=1;strokeColor=none;fillColor=none;align=center;verticalAlign=middle;whiteSpace=wrap;rounded=0;" vertex="1" parent="1">
          <mxGeometry x="210" y="230" width="60" height="30" as="geometry" />
        </mxCell>
      </root>
    </mxGraphModel>
  </diagram>
</mxfile>
